<svg xmlns="http://www.w3.org/2000/svg" viewBox="0 0 64 64" role="img" aria-labelledby="title">
  <title>Wildlife Home Connect Favicon</title>
  <rect width="64" height="64" rx="14" fill="#e7ede3" />
  <rect x="5.5" y="5.5" width="53" height="53" rx="12" fill="none" stroke="#2e4a34" stroke-opacity=".16" />
  <g fill="#2e4a34">
    <circle cx="20" cy="20.5" r="5" />
    <circle cx="31" cy="15.5" r="4.6" />
    <circle cx="42.5" cy="20.5" r="5" />
    <circle cx="48.5" cy="31.5" r="4.6" />
    <path d="M31.8 24.8c-6.4 0-12.1 5.1-12.1 11.7 0 5.2 3.8 10 9.7 10 1.7 0 3.1-.5 4.4-1.4 1.3.9 2.7 1.4 4.4 1.4 5.9 0 9.7-4.8 9.7-10 0-6.6-5.7-11.7-12.1-11.7-1.6 0-3 .3-4 .9-1.1-.6-2.5-.9-4-.9Z" />
  </g>
</svg>
